<svg data-v-fde0c5aa="" xmlns="http://www.w3.org/2000/svg" viewBox="0 0 300 300" class="iconAbove">
    <!---->
    <defs data-v-fde0c5aa="">
        <!---->
    </defs>
    <rect data-v-fde0c5aa="" fill="#FDEDDF" x="0" y="0" width="300px" height="300px" class="logo-background-square"></rect>
    <defs data-v-fde0c5aa="">
        <!---->
    </defs>
    <g data-v-fde0c5aa="" id="a5a4069a-dd48-489c-963c-2d5e1a58c6f1" fill="#361A02" transform="matrix(4.539898689048355,0,0,4.539898689048355,15.73249497251946,174.7080496372907)">
        <path d="M5.00 14.18L5.00 14.18Q3.70 14.18 2.44 13.44L2.44 13.44L1.25 14.04L0.94 14.04L0.94 10.44L1.25 10.44L2.45 13.05L2.45 13.05Q3.61 13.87 5.11 13.87L5.11 13.87L5.11 13.87Q6.34 13.87 7.15 13.22L7.15 13.22L7.15 13.22Q7.95 12.57 7.95 11.40L7.95 11.40L7.95 11.40Q7.95 10.54 7.43 10.05L7.43 10.05L7.43 10.05Q6.92 9.55 5.75 9.25L5.75 9.25L3.43 8.65L3.43 8.65Q2.21 8.33 1.60 7.55L1.60 7.55L1.60 7.55Q0.98 6.78 0.98 5.71L0.98 5.71L0.98 5.71Q0.98 4.75 1.36 4.00L1.36 4.00L1.36 4.00Q1.75 3.25 2.49 2.84L2.49 2.84L2.49 2.84Q3.23 2.42 4.26 2.42L4.26 2.42L4.26 2.42Q5.53 2.42 6.54 2.86L6.54 2.86L7.56 2.42L7.87 2.42L7.87 5.28L7.56 5.28L6.55 3.23L6.55 3.23Q5.50 2.73 4.27 2.73L4.27 2.73L4.27 2.73Q3.05 2.73 2.35 3.35L2.35 3.35L2.35 3.35Q1.65 3.98 1.65 5.00L1.65 5.00L1.65 5.00Q1.65 5.75 2.15 6.19L2.15 6.19L2.15 6.19Q2.65 6.62 3.61 6.87L3.61 6.87L6.12 7.53L6.12 7.53Q7.34 7.84 7.93 8.59L7.93 8.59L7.93 8.59Q8.53 9.34 8.53 10.86L8.53 10.86L8.53 10.86Q8.53 12.42 7.57 13.30L7.57 13.30L7.57 13.30Q6.61 14.18 5.00 14.18L5.00 14.18ZM13.62 14.04L13.62 14.04Q12.59 14.04 11.75 13.57L11.75 13.57L11.75 13.57Q10.91 13.10 10.42 12.25L10.42 12.25L10.42 12.25Q9.93 11.40 9.93 10.28L9.93 10.28L9.93 10.28Q9.93 9.16 10.41 8.31L10.41 8.31L10.41 8.31Q10.89 7.46 11.71 6.99L11.71 6.99L11.71 6.99Q12.53 6.52 13.54 6.52L13.54 6.52L13.54 6.52Q14.42 6.52 15.12 6.92L15.12 6.92L15.12 6.92Q15.82 7.31 16.21 8.00L16.21 8.00L16.21 8.00Q16.60 8.69 16.62 9.59L16.62 9.59L11.47 9.59L11.47 10.98L11.47 10.98Q11.47 12.21 12.02 12.97L12.02 12.97L12.02 12.97Q12.57 13.73 13.62 13.73L13.62 13.73L13.62 13.73Q14.59 13.73 15.33 13.19L15.33 13.19L15.33 13.19Q16.07 12.64 16.24 11.77L16.24 11.77L16.56 11.77L16.56 11.77Q16.37 12.81 15.57 13.43L15.57 13.43L15.57 13.43Q14.77 14.04 13.62 14.04L13.62 14.04ZM11.48 9.24L15.08 9.24L15.08 9.24Q15.08 8.02 14.70 7.43L14.70 7.43L14.70 7.43Q14.32 6.83 13.52 6.83L13.52 6.83L13.52 6.83Q12.59 6.83 12.07 7.49L12.07 7.49L12.07 7.49Q11.55 8.15 11.48 9.24L11.48 9.24ZM19.87 14.04L19.87 14.04Q18.97 14.04 18.40 13.57L18.40 13.57L18.40 13.57Q17.82 13.10 17.82 12.18L17.82 12.18L17.82 12.18Q17.82 10.86 18.93 10.31L18.93 10.31L18.93 10.31Q20.03 9.76 21.49 9.76L21.49 9.76L22.43 9.76L22.43 8.68L22.43 8.68Q22.43 7.95 22.27 7.55L22.27 7.55L22.27 7.55Q22.11 7.15 21.77 6.99L21.77 6.99L21.77 6.99Q21.43 6.83 20.86 6.83L20.86 6.83L20.86 6.83Q20.20 6.83 19.88 7.09L19.88 7.09L19.88 7.09Q19.56 7.35 19.56 7.78L19.56 7.78L19.56 7.78Q19.56 8.19 19.95 8.32L19.95 8.32L19.95 8.32Q19.95 8.67 19.68 8.93L19.68 8.93L19.68 8.93Q19.42 9.20 19.05 9.20L19.05 9.20L19.05 9.20Q18.66 9.20 18.42 8.98L18.42 8.98L18.42 8.98Q18.19 8.76 18.19 8.32L18.19 8.32L18.19 8.32Q18.19 7.50 19.00 7.01L19.00 7.01L19.00 7.01Q19.81 6.52 21.03 6.52L21.03 6.52L21.03 6.52Q23.83 6.52 23.83 8.96L23.83 8.96L23.83 12.96L23.83 12.96Q23.83 13.27 23.96 13.43L23.96 13.43L23.96 13.43Q24.09 13.59 24.35 13.59L24.35 13.59L24.35 13.59Q24.58 13.59 24.72 13.43L24.72 13.43L24.72 13.43Q24.86 13.27 24.86 12.99L24.86 12.99L25.16 12.99L25.16 12.99Q25.16 13.48 24.84 13.76L24.84 13.76L24.84 13.76Q24.53 14.04 23.97 14.04L23.97 14.04L23.97 14.04Q23.32 14.04 22.88 13.67L22.88 13.67L22.88 13.67Q22.44 13.30 22.43 12.52L22.43 12.52L22.43 12.52Q22.09 13.23 21.40 13.64L21.40 13.64L21.40 13.64Q20.71 14.04 19.87 14.04L19.87 14.04ZM20.64 13.43L20.64 13.43Q21.01 13.43 21.41 13.20L21.41 13.20L21.41 13.20Q21.81 12.98 22.09 12.55L22.09 12.55L22.09 12.55Q22.37 12.12 22.43 11.52L22.43 11.52L22.43 10.07L21.49 10.07L21.49 10.07Q20.34 10.07 19.78 10.58L19.78 10.58L19.78 10.58Q19.21 11.09 19.21 12.01L19.21 12.01L19.21 12.01Q19.21 12.78 19.57 13.10L19.57 13.10L19.57 13.10Q19.94 13.43 20.64 13.43L20.64 13.43ZM29.34 14.04L29.34 14.04Q28.34 14.04 27.51 13.57L27.51 13.57L27.51 13.57Q26.68 13.10 26.20 12.24L26.20 12.24L26.20 12.24Q25.72 11.38 25.72 10.28L25.72 10.28L25.72 10.28Q25.72 9.11 26.23 8.26L26.23 8.26L26.23 8.26Q26.74 7.41 27.57 6.97L27.57 6.97L27.57 6.97Q28.39 6.52 29.34 6.52L29.34 6.52L29.34 6.52Q30.14 6.52 30.80 6.80L30.80 6.80L30.80 6.80Q31.46 7.07 31.84 7.56L31.84 7.56L31.84 7.56Q32.23 8.05 32.23 8.67L32.23 8.67L32.23 8.67Q32.23 9.13 31.99 9.37L31.99 9.37L31.99 9.37Q31.75 9.62 31.36 9.62L31.36 9.62L31.36 9.62Q30.98 9.62 30.73 9.37L30.73 9.37L30.73 9.37Q30.48 9.11 30.48 8.74L30.48 8.74L30.48 8.74Q30.69 8.60 30.77 8.43L30.77 8.43L30.77 8.43Q30.86 8.26 30.86 8.01L30.86 8.01L30.86 8.01Q30.86 7.49 30.44 7.16L30.44 7.16L30.44 7.16Q30.03 6.83 29.34 6.83L29.34 6.83L29.34 6.83Q28.34 6.83 27.80 7.55L27.80 7.55L27.80 7.55Q27.26 8.27 27.26 9.58L27.26 9.58L27.26 10.98L27.26 10.98Q27.26 12.22 27.78 12.98L27.78 12.98L27.78 12.98Q28.31 13.73 29.34 13.73L29.34 13.73L29.34 13.73Q30.30 13.73 31.00 13.20L31.00 13.20L31.00 13.20Q31.71 12.66 31.88 11.77L31.88 11.77L32.20 11.77L32.20 11.77Q32.00 12.81 31.23 13.43L31.23 13.43L31.23 13.43Q30.45 14.04 29.34 14.04L29.34 14.04ZM33.07 13.90L33.07 13.62L34.05 13.48L34.05 3.12L33.07 2.98L33.07 2.70L35.45 2.70L35.45 8.16L35.45 8.16Q35.97 7.41 36.67 6.97L36.67 6.97L36.67 6.97Q37.37 6.52 38.18 6.52L38.18 6.52L38.18 6.52Q39.19 6.52 39.77 7.03L39.77 7.03L39.77 7.03Q40.35 7.53 40.35 8.53L40.35 8.53L40.35 13.48L41.33 13.62L41.33 13.90L38.11 13.90L38.11 13.62L38.95 13.48L38.95 8.55L38.95 8.55Q38.95 7.83 38.65 7.43L38.65 7.43L38.65 7.43Q38.36 7.03 37.74 7.03L37.74 7.03L37.74 7.03Q37.10 7.03 36.51 7.50L36.51 7.50L36.51 7.50Q35.91 7.97 35.45 8.65L35.45 8.65L35.45 13.48L36.29 13.62L36.29 13.90L33.07 13.90ZM44.27 14.04L44.27 14.04Q43.37 14.04 42.80 13.57L42.80 13.57L42.80 13.57Q42.22 13.10 42.22 12.18L42.22 12.18L42.22 12.18Q42.22 10.86 43.33 10.31L43.33 10.31L43.33 10.31Q44.44 9.76 45.89 9.76L45.89 9.76L46.83 9.76L46.83 8.68L46.83 8.68Q46.83 7.95 46.67 7.55L46.67 7.55L46.67 7.55Q46.51 7.15 46.17 6.99L46.17 6.99L46.17 6.99Q45.84 6.83 45.26 6.83L45.26 6.83L45.26 6.83Q44.60 6.83 44.28 7.09L44.28 7.09L44.28 7.09Q43.96 7.35 43.96 7.78L43.96 7.78L43.96 7.78Q43.96 8.19 44.35 8.32L44.35 8.32L44.35 8.32Q44.35 8.67 44.09 8.93L44.09 8.93L44.09 8.93Q43.82 9.20 43.46 9.20L43.46 9.20L43.46 9.20Q43.06 9.20 42.83 8.98L42.83 8.98L42.83 8.98Q42.59 8.76 42.59 8.32L42.59 8.32L42.59 8.32Q42.59 7.50 43.40 7.01L43.40 7.01L43.40 7.01Q44.21 6.52 45.43 6.52L45.43 6.52L45.43 6.52Q48.23 6.52 48.23 8.96L48.23 8.96L48.23 12.96L48.23 12.96Q48.23 13.27 48.36 13.43L48.36 13.43L48.36 13.43Q48.50 13.59 48.75 13.59L48.75 13.59L48.75 13.59Q48.99 13.59 49.13 13.43L49.13 13.43L49.13 13.43Q49.27 13.27 49.27 12.99L49.27 12.99L49.56 12.99L49.56 12.99Q49.56 13.48 49.24 13.76L49.24 13.76L49.24 13.76Q48.93 14.04 48.37 14.04L48.37 14.04L48.37 14.04Q47.73 14.04 47.28 13.67L47.28 13.67L47.28 13.67Q46.84 13.30 46.83 12.52L46.83 12.52L46.83 12.52Q46.49 13.23 45.80 13.64L45.80 13.64L45.80 13.64Q45.11 14.04 44.27 14.04L44.27 14.04ZM45.04 13.43L45.04 13.43Q45.42 13.43 45.81 13.20L45.81 13.20L45.81 13.20Q46.21 12.98 46.49 12.55L46.49 12.55L46.49 12.55Q46.77 12.12 46.83 11.52L46.83 11.52L46.83 10.07L45.89 10.07L45.89 10.07Q44.74 10.07 44.18 10.58L44.18 10.58L44.18 10.58Q43.61 11.09 43.61 12.01L43.61 12.01L43.61 12.01Q43.61 12.78 43.97 13.10L43.97 13.10L43.97 13.10Q44.34 13.43 45.04 13.43L45.04 13.43ZM53.47 14.04L53.47 14.04Q52.47 14.04 51.72 13.57L51.72 13.57L51.72 13.57Q50.96 13.10 50.54 12.26L50.54 12.26L50.54 12.26Q50.12 11.41 50.12 10.28L50.12 10.28L50.12 10.28Q50.12 9.14 50.54 8.30L50.54 8.30L50.54 8.30Q50.96 7.45 51.72 6.99L51.72 6.99L51.72 6.99Q52.47 6.52 53.47 6.52L53.47 6.52L53.47 6.52Q54.28 6.52 54.88 6.95L54.88 6.95L54.88 6.95Q55.48 7.38 55.83 8.12L55.83 8.12L55.83 3.12L54.85 2.98L54.85 2.70L57.23 2.70L57.23 13.48L58.21 13.62L58.21 13.90L55.83 13.90L55.83 12.45L55.83 12.45Q55.48 13.19 54.88 13.62L54.88 13.62L54.88 13.62Q54.28 14.04 53.47 14.04L53.47 14.04ZM53.61 13.69L53.61 13.69Q54.22 13.69 54.72 13.34L54.72 13.34L54.72 13.34Q55.22 12.98 55.52 12.38L55.52 12.38L55.52 12.38Q55.82 11.79 55.83 11.09L55.83 11.09L55.83 9.48L55.83 9.48Q55.82 8.78 55.52 8.18L55.52 8.18L55.52 8.18Q55.22 7.59 54.72 7.23L54.72 7.23L54.72 7.23Q54.22 6.87 53.61 6.87L53.61 6.87L53.61 6.87Q51.66 6.87 51.66 9.58L51.66 9.58L51.66 10.98L51.66 10.98Q51.66 13.69 53.61 13.69L53.61 13.69Z"></path>
    </g>
    <defs data-v-fde0c5aa="">
        <linearGradient data-v-fde0c5aa="" gradientTransform="rotate(25)" id="d3a631c9-6250-407f-a745-39600ceab9cc" x1="0%" y1="0%" x2="100%" y2="0%">
            <stop data-v-fde0c5aa="" offset="0%" stop-color="#E63500" stop-opacity="1"></stop>
            <stop data-v-fde0c5aa="" offset="100%" stop-color="#FFC316" stop-opacity="1"></stop>
        </linearGradient>
    </defs>
    <g data-v-fde0c5aa="" id="729f1a9a-a657-4d32-811b-315a3ffe98a0" stroke="none" fill="url(#d3a631c9-6250-407f-a745-39600ceab9cc)" transform="matrix(1.31815450200135,0,0,1.31815450200135,85.07363925222849,50.370949550525694)">
        <path d="M4.702 89.006h89.107V16.101H53.306v8.1h32.402v56.704H12.803V64.704H4.702zM4.702 24.201h8.101v8.101H4.702z"></path>
        <path d="M37.104 40.402h8.101v8.101h-8.101z"></path>
        <path d="M45.205 24.201v-8.1H29.004V8h-8.101v8.101h-8.1v8.1h8.1v8.101h-8.1v8.1h8.1v8.101H4.702v8.101h16.201v8.1h8.101v-8.1h8.1v-8.101h-8.1v-8.101h8.1v-8.1h-8.1v-8.101z"></path>
    </g> <!---->
</svg>